<svg id="Groupe_852" data-name="Groupe 852" xmlns="http://www.w3.org/2000/svg" xmlns:xlink="http://www.w3.org/1999/xlink" width="268.53" height="99.474" viewBox="0 0 268.53 99.474">
  <defs>
    <clipPath id="clip-path">
      <rect id="Rectangle_70" data-name="Rectangle 70" width="268.53" height="99.474" fill="#fff"/>
    </clipPath>
  </defs>
  <path id="Tracé_7" data-name="Tracé 7" d="M857.922,72.856V9.606h12.426l25.887,42.239V9.606H908.1v63.25H895.285l-25.5-41.246V72.856Z" transform="translate(-730 -8.173)" fill="#fff"/>
  <rect id="Rectangle_66" data-name="Rectangle 66" width="12.771" height="63.25" transform="translate(191.126 1.432)" fill="#fff"/>
  <path id="Tracé_8" data-name="Tracé 8" d="M1448.6,9.605l-12.426,20.321L1423.494,9.605h-14.928l19.588,30.244-21.615,33.006h15.316l14.065-21.874,14.022,21.874h15.4l-21.615-32.531L1463.4,9.605Z" transform="translate(-1196.815 -8.173)" fill="#fff"/>
  <path id="Tracé_9" data-name="Tracé 9" d="M0,9.605v63.25H48.106V62.2H12.771V44.984H44.525V34.327H12.771V20.305H46.9V9.605Z" transform="translate(0 -8.173)" fill="#fff"/>
  <g id="Groupe_847" data-name="Groupe 847">
    <g id="Groupe_846" data-name="Groupe 846" clip-path="url(#clip-path)">
      <path id="Tracé_10" data-name="Tracé 10" d="M412.817,0a9.45,9.45,0,0,0-9.45,9.45q0,.24.012.477H369.619c.005-.132.009-.264.009-.4a9.526,9.526,0,1,0-8.268,9.447l17.762,30.462a9.515,9.515,0,1,0,13.455.216q-.072-.074-.145-.147l17.834-30.958A9.451,9.451,0,1,0,412.817,0m-53.35,7.51A3.525,3.525,0,1,1,363,11.036a3.525,3.525,0,0,1-3.529-3.525ZM388.5,57.81a3.525,3.525,0,1,1,3.525-3.525A3.525,3.525,0,0,1,388.5,57.81m1.211-10.184a9.536,9.536,0,0,0-7.854-.039l-17.28-29.641a9.568,9.568,0,0,0,4.308-4.718h35.267a9.483,9.483,0,0,0,3.132,3.888Zm26-36.59a3.525,3.525,0,1,1,3.523-3.527v0a3.525,3.525,0,0,1-3.523,3.525" transform="translate(-298.303 -0.001)" fill="#fff"/>
      <path id="Tracé_11" data-name="Tracé 11" d="M5.139,575.462a10.3,10.3,0,0,1-2.9-.406A6.792,6.792,0,0,1,0,574l.992-2.2a7.236,7.236,0,0,0,1.92.947,7.055,7.055,0,0,0,2.245.37,4.674,4.674,0,0,0,1.4-.171,1.638,1.638,0,0,0,.784-.478,1.075,1.075,0,0,0,.252-.7.952.952,0,0,0-.4-.8,3.252,3.252,0,0,0-1.046-.487q-.649-.189-1.434-.361t-1.569-.424a6.628,6.628,0,0,1-1.434-.649A3.191,3.191,0,0,1,.658,568a3.083,3.083,0,0,1-.406-1.659,3.521,3.521,0,0,1,.586-1.974,4.009,4.009,0,0,1,1.767-1.425,7.241,7.241,0,0,1,2.966-.532,9.928,9.928,0,0,1,2.344.28,6.769,6.769,0,0,1,2.038.838l-.9,2.218a7.683,7.683,0,0,0-1.767-.748,6.5,6.5,0,0,0-1.731-.244,4.1,4.1,0,0,0-1.388.2,1.639,1.639,0,0,0-.776.514,1.192,1.192,0,0,0-.234.73.934.934,0,0,0,.4.785,3.134,3.134,0,0,0,1.046.478q.649.18,1.434.361t1.569.415a6.082,6.082,0,0,1,1.434.631,3.19,3.19,0,0,1,1.055,1.046,3.047,3.047,0,0,1,.406,1.641,3.412,3.412,0,0,1-.6,1.948,4.157,4.157,0,0,1-1.776,1.424,7.179,7.179,0,0,1-2.984.541" transform="translate(0 -478.549)" fill="#fff"/>
      <path id="Tracé_12" data-name="Tracé 12" d="M83.174,592.473a6.246,6.246,0,0,1-2.912-.649,4.785,4.785,0,0,1-1.939-1.776,4.847,4.847,0,0,1-.685-2.57,4.932,4.932,0,0,1,.676-2.588,4.794,4.794,0,0,1,1.848-1.767,5.788,5.788,0,0,1,5.22-.036,4.526,4.526,0,0,1,1.812,1.731,5.2,5.2,0,0,1,.667,2.7c0,.108-.006.232-.018.37s-.024.268-.036.388h-7.88V586.63h6.4l-1.082.487a2.7,2.7,0,0,0-.307-1.316,2.242,2.242,0,0,0-.848-.875,2.462,2.462,0,0,0-1.262-.316,2.511,2.511,0,0,0-1.271.316,2.2,2.2,0,0,0-.856.884,2.787,2.787,0,0,0-.307,1.343v.433a2.728,2.728,0,0,0,.352,1.4,2.294,2.294,0,0,0,.992.919,3.365,3.365,0,0,0,1.506.315,3.651,3.651,0,0,0,1.361-.234,3.316,3.316,0,0,0,1.073-.7l1.5,1.623a4.36,4.36,0,0,1-1.677,1.163,6.206,6.206,0,0,1-2.326.406" transform="translate(-66.062 -495.631)" fill="#fff"/>
      <path id="Tracé_13" data-name="Tracé 13" d="M164.681,582.483a4.517,4.517,0,0,1,2.065.46,3.337,3.337,0,0,1,1.434,1.407,4.983,4.983,0,0,1,.523,2.425v5.554H165.89v-5.121a2.493,2.493,0,0,0-.514-1.731,1.873,1.873,0,0,0-1.452-.559,2.54,2.54,0,0,0-1.2.28,1.941,1.941,0,0,0-.829.857,3.22,3.22,0,0,0-.3,1.479v4.8h-2.813v-9.7h2.687v2.687l-.5-.811a3.592,3.592,0,0,1,1.5-1.5,4.615,4.615,0,0,1,2.218-.523" transform="translate(-135.109 -495.631)" fill="#fff"/>
      <path id="Tracé_14" data-name="Tracé 14" d="M240.262,592.473a9.47,9.47,0,0,1-2.389-.3,5.915,5.915,0,0,1-1.812-.748l.938-2.02a6.209,6.209,0,0,0,1.578.676,6.471,6.471,0,0,0,1.794.262,2.942,2.942,0,0,0,1.379-.234.72.72,0,0,0,.406-.649.552.552,0,0,0-.316-.514,2.77,2.77,0,0,0-.839-.261q-.523-.09-1.145-.18t-1.253-.243a4.238,4.238,0,0,1-1.154-.46,2.354,2.354,0,0,1-.839-.83,2.587,2.587,0,0,1-.315-1.352,2.616,2.616,0,0,1,.532-1.623,3.518,3.518,0,0,1,1.542-1.109,6.473,6.473,0,0,1,2.416-.406,9.781,9.781,0,0,1,2.02.216,5.483,5.483,0,0,1,1.713.631l-.938,2a4.759,4.759,0,0,0-1.415-.568,6.576,6.576,0,0,0-1.38-.153,2.829,2.829,0,0,0-1.37.253.744.744,0,0,0-.433.649.585.585,0,0,0,.316.541,2.883,2.883,0,0,0,.839.289q.523.108,1.145.189a10.5,10.5,0,0,1,1.253.244,4.523,4.523,0,0,1,1.145.46,2.4,2.4,0,0,1,.839.812,2.484,2.484,0,0,1,.324,1.343,2.524,2.524,0,0,1-.541,1.6,3.552,3.552,0,0,1-1.56,1.091,6.856,6.856,0,0,1-2.479.4" transform="translate(-200.862 -495.631)" fill="#fff"/>
      <path id="Tracé_15" data-name="Tracé 15" d="M306.015,556.475a1.784,1.784,0,0,1-1.262-.451,1.527,1.527,0,0,1,0-2.236,1.785,1.785,0,0,1,1.262-.451,1.854,1.854,0,0,1,1.262.424,1.381,1.381,0,0,1,.487,1.091,1.546,1.546,0,0,1-.478,1.163,1.757,1.757,0,0,1-1.271.46m-1.407,1.353h2.813v9.7h-2.813Z" transform="translate(-258.898 -470.831)" fill="#fff"/>
      <path id="Tracé_16" data-name="Tracé 16" d="M335.225,571.421h6.726v2.164h-6.726Zm5.121,9.629a3.806,3.806,0,0,1-2.669-.875,3.356,3.356,0,0,1-.956-2.605v-8.511h2.813v8.475a1.3,1.3,0,0,0,.325.947,1.175,1.175,0,0,0,.884.334,1.808,1.808,0,0,0,1.136-.361l.757,1.984a3.082,3.082,0,0,1-1.037.46,5.09,5.09,0,0,1-1.253.153" transform="translate(-285.241 -484.209)" fill="#fff"/>
      <path id="Tracé_17" data-name="Tracé 17" d="M395.022,556.475a1.784,1.784,0,0,1-1.262-.451,1.527,1.527,0,0,1,0-2.236,1.786,1.786,0,0,1,1.262-.451,1.855,1.855,0,0,1,1.262.424,1.381,1.381,0,0,1,.487,1.091,1.546,1.546,0,0,1-.478,1.163,1.757,1.757,0,0,1-1.271.46m-1.406,1.353h2.813v9.7h-2.813Z" transform="translate(-334.634 -470.831)" fill="#fff"/>
      <path id="Tracé_18" data-name="Tracé 18" d="M426.372,593.152l-4.075-9.7h2.9l3.39,8.349h-1.443l3.516-8.349h2.7l-4.093,9.7Z" transform="translate(-359.33 -496.455)" fill="#fff"/>
      <path id="Tracé_19" data-name="Tracé 19" d="M503.173,592.473a6.246,6.246,0,0,1-2.912-.649,4.784,4.784,0,0,1-1.939-1.776,4.847,4.847,0,0,1-.685-2.57,4.932,4.932,0,0,1,.676-2.588,4.793,4.793,0,0,1,1.848-1.767,5.788,5.788,0,0,1,5.22-.036,4.526,4.526,0,0,1,1.812,1.731,5.2,5.2,0,0,1,.667,2.7c0,.108-.006.232-.018.37s-.024.268-.036.388h-7.88V586.63h6.4l-1.082.487a2.7,2.7,0,0,0-.307-1.316,2.242,2.242,0,0,0-.848-.875,2.462,2.462,0,0,0-1.262-.316,2.511,2.511,0,0,0-1.271.316,2.2,2.2,0,0,0-.856.884,2.786,2.786,0,0,0-.307,1.343v.433a2.729,2.729,0,0,0,.352,1.4,2.294,2.294,0,0,0,.992.919,3.365,3.365,0,0,0,1.506.315,3.651,3.651,0,0,0,1.361-.234,3.316,3.316,0,0,0,1.073-.7l1.5,1.623a4.36,4.36,0,0,1-1.677,1.163,6.206,6.206,0,0,1-2.326.406" transform="translate(-423.436 -495.631)" fill="#fff"/>
      <rect id="Rectangle_67" data-name="Rectangle 67" width="2.921" height="12.622" transform="translate(91.602 84.075)" fill="#fff"/>
      <path id="Tracé_20" data-name="Tracé 20" d="M648.488,576.481V566.239h-4.039v-2.38h11v2.38h-4.039v10.242Z" transform="translate(-548.357 -479.784)" fill="#fff"/>
      <path id="Tracé_21" data-name="Tracé 21" d="M719.125,632.15l1.19-4.328.4,1.623a1.817,1.817,0,0,1-1.271-.451,1.6,1.6,0,0,1-.5-1.244,1.64,1.64,0,0,1,.5-1.262,1.76,1.76,0,0,1,1.244-.469,1.7,1.7,0,0,1,1.244.478,1.679,1.679,0,0,1,.487,1.253,2.9,2.9,0,0,1-.036.46,3.988,3.988,0,0,1-.135.541,7.951,7.951,0,0,1-.315.8l-1.028,2.6Z" transform="translate(-611.746 -532.676)" fill="#fff"/>
      <path id="Tracé_22" data-name="Tracé 22" d="M790.656,576.482V563.859h5.464a7.1,7.1,0,0,1,2.921.55,4.278,4.278,0,0,1,1.893,1.578,4.406,4.406,0,0,1,.667,2.452,4.328,4.328,0,0,1-.667,2.425,4.243,4.243,0,0,1-1.893,1.56,7.2,7.2,0,0,1-2.921.541h-3.841l1.3-1.28v4.8Zm2.921-4.472-1.3-1.371h3.679a2.99,2.99,0,0,0,2.02-.586,2.3,2.3,0,0,0,0-3.237,3.024,3.024,0,0,0-2.02-.577h-3.679l1.3-1.388Zm5.1,4.472-3.156-4.58h3.12l3.192,4.58Z" transform="translate(-672.764 -479.784)" fill="#fff"/>
      <path id="Tracé_23" data-name="Tracé 23" d="M878.909,592.473a6.245,6.245,0,0,1-2.912-.649,4.784,4.784,0,0,1-1.938-1.776,4.846,4.846,0,0,1-.685-2.57,4.931,4.931,0,0,1,.676-2.588,4.8,4.8,0,0,1,1.848-1.767,5.789,5.789,0,0,1,5.22-.036,4.529,4.529,0,0,1,1.812,1.731,5.2,5.2,0,0,1,.667,2.7c0,.108-.006.232-.018.37s-.024.268-.036.388h-7.88V586.63h6.4l-1.082.487a2.7,2.7,0,0,0-.307-1.316,2.243,2.243,0,0,0-.847-.875,2.463,2.463,0,0,0-1.262-.316,2.511,2.511,0,0,0-1.271.316,2.2,2.2,0,0,0-.857.884,2.789,2.789,0,0,0-.306,1.343v.433a2.729,2.729,0,0,0,.352,1.4,2.294,2.294,0,0,0,.992.919,3.366,3.366,0,0,0,1.506.315,3.65,3.65,0,0,0,1.361-.234,3.313,3.313,0,0,0,1.073-.7l1.5,1.623a4.362,4.362,0,0,1-1.677,1.163,6.207,6.207,0,0,1-2.326.406" transform="translate(-743.148 -495.631)" fill="#fff"/>
      <rect id="Rectangle_68" data-name="Rectangle 68" width="2.813" height="13.38" transform="translate(142.325 83.318)" fill="#fff"/>
      <path id="Tracé_24" data-name="Tracé 24" d="M990.372,556.475a1.785,1.785,0,0,1-1.262-.451,1.528,1.528,0,0,1,0-2.236,1.786,1.786,0,0,1,1.262-.451,1.856,1.856,0,0,1,1.262.424,1.382,1.382,0,0,1,.487,1.091,1.546,1.546,0,0,1-.478,1.163,1.757,1.757,0,0,1-1.271.46m-1.407,1.353h2.813v9.7h-2.813Z" transform="translate(-841.213 -470.831)" fill="#fff"/>
      <path id="Tracé_25" data-name="Tracé 25" d="M1026.712,592.473a4.485,4.485,0,0,1-1.947-.388,2.957,2.957,0,0,1-1.244-1.055,2.86,2.86,0,0,1-.009-3.011,2.775,2.775,0,0,1,1.344-1.019,6.531,6.531,0,0,1,2.4-.37h2.578v1.641h-2.272a2.113,2.113,0,0,0-1.361.325,1.034,1.034,0,0,0-.37.811,1.011,1.011,0,0,0,.424.857,1.907,1.907,0,0,0,1.163.316,2.411,2.411,0,0,0,1.262-.334,1.911,1.911,0,0,0,.812-.983l.433,1.3a2.512,2.512,0,0,1-1.118,1.424,4.021,4.021,0,0,1-2.092.487m2.958-.144v-1.893l-.18-.415v-3.39a1.815,1.815,0,0,0-.55-1.407,2.428,2.428,0,0,0-1.686-.5,4.893,4.893,0,0,0-1.524.244,4.023,4.023,0,0,0-1.271.658l-1.01-1.966a6.093,6.093,0,0,1,1.912-.866,8.559,8.559,0,0,1,2.272-.306,5.149,5.149,0,0,1,3.444,1.046,4.059,4.059,0,0,1,1.226,3.264v5.536Z" transform="translate(-870.539 -495.631)" fill="#fff"/>
      <path id="Tracé_26" data-name="Tracé 26" d="M1101.936,572.159v-13.38h2.813v5.644l-.18,2.867.054,2.885v1.983Zm5.734.144a4.264,4.264,0,0,1-2.2-.541,3.45,3.45,0,0,1-1.406-1.65,7,7,0,0,1-.487-2.8,6.665,6.665,0,0,1,.514-2.813,3.608,3.608,0,0,1,1.433-1.641,4.152,4.152,0,0,1,2.146-.541,4.938,4.938,0,0,1,2.461.613,4.521,4.521,0,0,1,1.731,1.731,5.771,5.771,0,0,1,0,5.283,4.587,4.587,0,0,1-1.731,1.74,4.881,4.881,0,0,1-2.461.622m-.487-2.308a2.421,2.421,0,0,0,1.253-.325,2.392,2.392,0,0,0,.883-.929,3.264,3.264,0,0,0,0-2.876,2.357,2.357,0,0,0-2.137-1.244,2.465,2.465,0,0,0-1.262.325,2.323,2.323,0,0,0-.883.92,3.349,3.349,0,0,0,0,2.876,2.307,2.307,0,0,0,.883.929,2.467,2.467,0,0,0,1.262.325" transform="translate(-937.63 -475.462)" fill="#fff"/>
      <rect id="Rectangle_69" data-name="Rectangle 69" width="2.813" height="13.38" transform="translate(176.747 83.318)" fill="#fff"/>
      <path id="Tracé_27" data-name="Tracé 27" d="M1222.478,592.473a6.246,6.246,0,0,1-2.912-.649,4.784,4.784,0,0,1-1.938-1.776,4.845,4.845,0,0,1-.685-2.57,4.931,4.931,0,0,1,.676-2.588,4.794,4.794,0,0,1,1.848-1.767,5.789,5.789,0,0,1,5.22-.036,4.53,4.53,0,0,1,1.812,1.731,5.2,5.2,0,0,1,.667,2.7c0,.108-.006.232-.018.37s-.024.268-.036.388h-7.88V586.63h6.4l-1.082.487a2.7,2.7,0,0,0-.307-1.316,2.242,2.242,0,0,0-.848-.875,2.462,2.462,0,0,0-1.262-.316,2.511,2.511,0,0,0-1.271.316,2.2,2.2,0,0,0-.857.884,2.791,2.791,0,0,0-.307,1.343v.433a2.727,2.727,0,0,0,.352,1.4,2.292,2.292,0,0,0,.992.919,3.366,3.366,0,0,0,1.506.315,3.652,3.652,0,0,0,1.361-.234,3.312,3.312,0,0,0,1.073-.7l1.5,1.623a4.362,4.362,0,0,1-1.677,1.163,6.208,6.208,0,0,1-2.326.406" transform="translate(-1035.489 -495.631)" fill="#fff"/>
      <path id="Tracé_28" data-name="Tracé 28" d="M1333.642,576.481V563.859h5.464a7.1,7.1,0,0,1,2.921.55,4.28,4.28,0,0,1,1.893,1.578,4.808,4.808,0,0,1,0,4.887,4.277,4.277,0,0,1-1.893,1.578,7.091,7.091,0,0,1-2.921.55h-3.841l1.3-1.316v4.8Zm2.921-4.472-1.3-1.388h3.678a3.02,3.02,0,0,0,2.02-.577,2.009,2.009,0,0,0,.667-1.6,2.032,2.032,0,0,0-.667-1.623,3.024,3.024,0,0,0-2.02-.577h-3.678l1.3-1.388Z" transform="translate(-1134.788 -479.784)" fill="#fff"/>
      <path id="Tracé_29" data-name="Tracé 29" d="M1418.415,592.473a4.482,4.482,0,0,1-1.947-.388,2.956,2.956,0,0,1-1.244-1.055,2.862,2.862,0,0,1-.01-3.011,2.777,2.777,0,0,1,1.344-1.019,6.532,6.532,0,0,1,2.4-.37h2.579v1.641h-2.272a2.114,2.114,0,0,0-1.362.325,1.034,1.034,0,0,0-.37.811,1.011,1.011,0,0,0,.424.857,1.908,1.908,0,0,0,1.163.316,2.413,2.413,0,0,0,1.262-.334,1.91,1.91,0,0,0,.811-.983l.433,1.3a2.511,2.511,0,0,1-1.118,1.424,4.02,4.02,0,0,1-2.092.487m2.957-.144v-1.893l-.18-.415v-3.39a1.814,1.814,0,0,0-.55-1.407,2.428,2.428,0,0,0-1.686-.5,4.889,4.889,0,0,0-1.524.244,4.025,4.025,0,0,0-1.271.658l-1.01-1.966a6.093,6.093,0,0,1,1.911-.866,8.562,8.562,0,0,1,2.272-.306,5.149,5.149,0,0,1,3.444,1.046,4.058,4.058,0,0,1,1.226,3.264v5.536Z" transform="translate(-1203.836 -495.631)" fill="#fff"/>
      <path id="Tracé_30" data-name="Tracé 30" d="M1493.637,592.328v-9.7h2.687v2.741l-.378-.793a3.117,3.117,0,0,1,1.388-1.56,4.722,4.722,0,0,1,2.326-.532v2.6q-.181-.017-.325-.027c-.1-.006-.2-.009-.307-.009a2.391,2.391,0,0,0-2.579,2.7v4.58Z" transform="translate(-1270.926 -495.631)" fill="#fff"/>
      <path id="Tracé_31" data-name="Tracé 31" d="M1539.834,571.421h6.726v2.164h-6.726Zm5.121,9.629a3.805,3.805,0,0,1-2.669-.875,3.356,3.356,0,0,1-.956-2.605v-8.511h2.813v8.475a1.3,1.3,0,0,0,.325.947,1.175,1.175,0,0,0,.883.334,1.808,1.808,0,0,0,1.136-.361l.757,1.984a3.083,3.083,0,0,1-1.037.46,5.088,5.088,0,0,1-1.253.153" transform="translate(-1310.235 -484.209)" fill="#fff"/>
      <path id="Tracé_32" data-name="Tracé 32" d="M1606.077,582.483a4.517,4.517,0,0,1,2.065.46,3.335,3.335,0,0,1,1.433,1.407,4.982,4.982,0,0,1,.523,2.425v5.554h-2.813v-5.121a2.492,2.492,0,0,0-.514-1.731,1.874,1.874,0,0,0-1.452-.559,2.542,2.542,0,0,0-1.2.28,1.94,1.94,0,0,0-.829.857,3.218,3.218,0,0,0-.3,1.479v4.8h-2.813v-9.7h2.686v2.687l-.5-.811a3.593,3.593,0,0,1,1.5-1.5,4.615,4.615,0,0,1,2.218-.523" transform="translate(-1361.583 -495.631)" fill="#fff"/>
      <path id="Tracé_33" data-name="Tracé 33" d="M1684.926,592.473a6.247,6.247,0,0,1-2.912-.649,4.783,4.783,0,0,1-1.938-1.776,4.845,4.845,0,0,1-.685-2.57,4.931,4.931,0,0,1,.676-2.588,4.794,4.794,0,0,1,1.848-1.767,5.788,5.788,0,0,1,5.22-.036,4.528,4.528,0,0,1,1.813,1.731,5.2,5.2,0,0,1,.667,2.7c0,.108-.006.232-.018.37s-.024.268-.036.388h-7.88V586.63h6.4l-1.082.487a2.7,2.7,0,0,0-.307-1.316,2.243,2.243,0,0,0-.847-.875,2.463,2.463,0,0,0-1.262-.316,2.51,2.51,0,0,0-1.271.316,2.2,2.2,0,0,0-.857.884,2.787,2.787,0,0,0-.306,1.343v.433a2.731,2.731,0,0,0,.351,1.4,2.3,2.3,0,0,0,.992.919,3.367,3.367,0,0,0,1.506.315,3.65,3.65,0,0,0,1.361-.234,3.316,3.316,0,0,0,1.073-.7l1.5,1.623a4.362,4.362,0,0,1-1.677,1.163,6.207,6.207,0,0,1-2.326.406" transform="translate(-1428.983 -495.631)" fill="#fff"/>
      <path id="Tracé_34" data-name="Tracé 34" d="M1760.537,592.328v-9.7h2.687v2.741l-.379-.793a3.119,3.119,0,0,1,1.389-1.56,4.721,4.721,0,0,1,2.326-.532v2.6q-.181-.017-.325-.027c-.1-.006-.2-.009-.306-.009a2.392,2.392,0,0,0-2.579,2.7v4.58Z" transform="translate(-1498.03 -495.631)" fill="#fff"/>
    </g>
  </g>
</svg>
